# xmcd
#
# Track frame offsets:
#	150
#	15440
#	27732
#	41927
#	55277
#	66977
#	81495
#	94942
#	108092
#	121312
#	135410
#	155222
#	167450
#	174440
#	188157
#	201900
#	215642
#	230625
#	243002
#	257812
#	271052
#	284687
#	298967
#
# Disc length: 4181
#
# Revision: 4
# Processed by: cddbd v1.5.1PL0 Copyright (c) Steve Scherf et al.
# Submitted via: CDex 1.51
# Normalized: r3:DSETVAR1,TDELIM( - )
#
DISCID=5f105317
DTITLE=Various Artist - The Smithsonian Collection of Classic Jazz (Revised) - Volume I
DYEAR=1987
DGENRE=Jazz
TTITLE0=Scott Joplin - Maple Leaf Rag
TTITLE1=Jelly Roll Morton - Maple Leaf Rag
TTITLE2=Bessie Smith - St. Louis Blues
TTITLE3=Bessie Smith - Lost Your Head Blues
TTITLE4=King Oliver's Creole Jazz Band - Dippermouth Blues
TTITLE5=Jelly Roll Morton's Red Hot Peppers - Black Bottom Stomp
TTITLE6=Jelly Roll Morton's Red Hot Peppers - Dead Man Blues
TTITLE7=Jelly Roll Morton's Red Hot Peppers - Grandpa's Spells
TTITLE8=Jelly Roll Morton - King Porter Stomp
TTITLE9=Red Onion Jazz Babies - Cake Walking Babies fom Home
TTITLE10=Sidney Bechet and his Blue Note Jazz Men - Blue Horizon
TTITLE11=James P. Johnson - Carolina Shout
TTITLE12=Louis Armstrong And His Hot Five - Big Butter and Egg Man from the West
TTITLE13=Louis Armstrong And His Hot Seven - Potato Head Blues
TTITLE14=Louis Armstrong And His Hot Five - Struttin' with Some Barbecue
TTITLE15=Louis Armstrong And His Hot Five - Hotter than That
TTITLE16=Louis Armstrong And His Hot Five - West End Blues
TTITLE17=Louis Armstrong And Earl Hines - Weather Bird
TTITLE18=Louis Armstrong And His Orchestra - Sweethearts on Parade
TTITLE19=Louis Armstrong And His Orchestra - I Gotta Right to Sing the Blues
TTITLE20=Frankie Trumbauer And His Orchestra - Singin' the Blues
TTITLE21=Frankie Trumbauer And His Orchestra - Riverboat Shuffle
TTITLE22=Jimmie Noone's Apex Club Orchestra - Four or Five Times
EXTD=YEAR: 1987
EXTT0=
EXTT1=
EXTT2=
EXTT3=
EXTT4=
EXTT5=
EXTT6=
EXTT7=
EXTT8=
EXTT9=
EXTT10=
EXTT11=
EXTT12=
EXTT13=
EXTT14=
EXTT15=
EXTT16=
EXTT17=
EXTT18=
EXTT19=
EXTT20=
EXTT21=
EXTT22=
PLAYORDER=
